# xmcd
#
# Track frame offsets:
#	150
#	17298
#	36762
#	55863
#	88980
#	114600
#	145557
#	176472
#	211065
#	232575
#	262836
#	282759
#
# Disc length: 3989 seconds
#
# Revision: 1
# Processed by: cddbd v1.5.1PL0 Copyright (c) Steve Scherf et al.
# Submitted via: audiograbber 1.83.01
#
DISCID=8e0f930c
DTITLE=Tom Waits - Big in Florence,24-7-99
DYEAR=1999
DGENRE=
TTITLE0=Jockey full of bourbon
TTITLE1=Earth died screaming
TTITLE2=Jesus gonna be here
TTITLE3=Get behind the mule
TTITLE4=Chocolate Jesus
TTITLE5=Hold on
TTITLE6=Innocent when you dream
TTITLE7=16 shells from a 30.6
TTITLE8=Shore leave
TTITLE9=Big in Japan
TTITLE10=(Looking for) The heart of Saturday night
TTITLE11=House where nobody lives
EXTD=
EXTT0=
EXTT1=
EXTT2=
EXTT3=
EXTT4=
EXTT5=
EXTT6=
EXTT7=
EXTT8=
EXTT9=
EXTT10=
EXTT11=
PLAYORDER=
